<svg xmlns="http://www.w3.org/2000/svg" width="52" height="52" viewBox="0 0 52 52">
  <defs>
    <linearGradient id="goldGrad" x1="0" y1="0" x2="1" y2="1">
      <stop offset="0%" stop-color="#F4D97A" />
      <stop offset="100%" stop-color="#C8A951" />
    </linearGradient>
  </defs>
  <polygon
    points="26,2 32,8 40,6 42,14 50,20 46,28 50,36 42,40 40,48 32,46 26,50 20,46 12,48 10,40 2,36 6,28 2,20 10,14 12,6 20,8"
    fill="url(#goldGrad)"
    stroke="#F4D97A"
    stroke-width="1"
  />
  <circle
    cx="26"
    cy="26"
    r="14"
    fill="#0A1628"
    stroke="#F4D97A"
    stroke-width="1"
  />
  <g transform="translate(26 26)">
    <path
      d="M-8 -2 C -4 -6, 0 -6, 0 -2 M0 -2 C 0 -6, 4 -6, 8 -2"
      stroke="#F4D97A"
      stroke-width="1.4"
      fill="none"
      stroke-linecap="round"
    />
    <path d="M-2 -1 L 0 4 L 2 -1 Z" fill="#F4D97A" />
  </g>
</svg>